static_grf.mot
version=1
nRows=25
nColumns 19
inDegrees=yes
endheader
time	1_ground_force_vx	1_ground_force_vy	1_ground_force_vz	1_ground_force_px	1_ground_force_py	1_ground_force_pz	1_ground_torque_x	1_ground_torque_y	1_ground_torque_z	2_ground_force_vx	2_ground_force_vy	2_ground_force_vz	2_ground_force_px	2_ground_force_py	2_ground_force_pz	2_ground_torque_x	2_ground_torque_y	2_ground_torque_z
            1.002500	            4.850354	          337.604974	          -32.773927	           -0.288702	            0.006266	           -0.417814	            0.023454	            1.632525	           -0.158482	          -12.321159	          455.683321	           14.301352	           -0.251881	            0.005644	           -0.717300	           -0.062656	            2.317254	            0.072726
            1.003000	            4.805113	          337.423747	          -32.545310	           -0.289184	            0.006265	           -0.417426	            0.023299	            1.636132	           -0.157809	          -12.319000	          455.129560	           14.674806	           -0.251909	            0.005642	           -0.716787	           -0.062915	            2.324429	            0.074947
            1.003500	            5.171482	          337.604643	          -32.683011	           -0.288869	            0.006264	           -0.417294	            0.025777	            1.682742	           -0.162904	          -12.365953	          455.130228	           14.440185	           -0.252072	            0.005642	           -0.716994	           -0.063055	            2.320763	            0.073632
            1.004000	            5.080105	          337.784332	          -32.544447	           -0.289078	            0.006265	           -0.417469	            0.025228	            1.677472	           -0.161619	          -12.224677	          454.946093	           14.580253	           -0.251915	            0.005643	           -0.716862	           -0.061937	            2.305012	            0.073872
            1.004500	            4.713444	          336.702863	          -32.594026	           -0.289161	            0.006268	           -0.418118	            0.022249	            1.589334	           -0.153853	          -12.084148	          454.946767	           14.533265	           -0.251953	            0.005642	           -0.716693	           -0.060094	            2.262443	            0.072274
            1.005000	            4.758569	          338.145784	          -32.771380	           -0.289124	            0.006266	           -0.417720	            0.023090	            1.640815	           -0.159019	          -12.038107	          455.132249	           14.205405	           -0.251983	            0.005642	           -0.716699	           -0.059856	            2.263007	            0.070632
            1.005500	            4.988158	          337.964942	          -32.635158	           -0.288624	            0.006265	           -0.417398	            0.024243	            1.642575	           -0.158613	          -12.408795	          454.024986	           14.483191	           -0.251997	            0.005642	           -0.716753	           -0.063649	            2.328858	            0.074290
            1.006000	            5.125687	          337.964969	          -32.635500	           -0.289184	            0.006264	           -0.417279	            0.026653	            1.757390	           -0.169702	          -12.319062	          455.130062	           14.534022	           -0.252032	            0.005643	           -0.716994	           -0.062888	            2.323412	            0.074195
            1.006500	            4.896310	          337.604786	          -32.728188	           -0.288924	            0.006265	           -0.417585	            0.023440	            1.616174	           -0.156676	          -12.226691	          455.498682	           14.535296	           -0.251685	            0.005644	           -0.717087	           -0.062167	            2.315987	            0.073905
            1.007000	            5.217568	          338.144890	          -32.543242	           -0.288726	            0.006265	           -0.417518	            0.025762	            1.669633	           -0.160686	          -12.180547	          455.683327	           14.442077	           -0.251962	            0.005643	           -0.716925	           -0.060750	            2.272694	            0.072029
            1.007500	            4.942444	          338.505368	          -32.541014	           -0.288482	            0.006263	           -0.417017	            0.024242	            1.660304	           -0.159607	          -12.412159	          454.946085	           14.392620	           -0.251956	            0.005643	           -0.717071	           -0.063251	            2.318367	            0.073344
            1.008000	            4.942201	          337.965130	          -32.680897	           -0.288782	            0.006264	           -0.417180	            0.024687	            1.688191	           -0.163246	          -12.270924	          454.762285	           14.438831	           -0.251755	            0.005643	           -0.716691	           -0.061758	            2.288775	            0.072669
            1.008500	            5.217472	          337.424220	          -32.638046	           -0.289005	            0.006267	           -0.417875	            0.026072	            1.686108	           -0.163092	          -12.363295	          454.393665	           14.437557	           -0.251853	            0.005642	           -0.716720	           -0.062015	            2.279250	            0.072419
            1.009000	            4.850498	          338.685978	          -32.631725	           -0.288961	            0.006262	           -0.416831	            0.023858	            1.665899	           -0.160506	          -12.269492	          454.393167	           14.672158	           -0.251938	            0.005642	           -0.716719	           -0.061095	            2.262614	            0.073059
            1.009500	            4.759138	          338.144801	          -32.542104	           -0.288676	            0.006264	           -0.417303	            0.023322	            1.657047	           -0.159470	          -12.269533	          454.393501	           14.578302	           -0.252022	            0.005641	           -0.716638	           -0.062159	            2.302031	            0.073856
            1.010000	            5.126031	          336.702943	          -32.595050	           -0.288808	            0.006267	           -0.417942	            0.025306	            1.662233	           -0.160915	          -12.413509	          455.314534	           14.347006	           -0.251817	            0.005643	           -0.716920	           -0.064098	            2.351043	            0.074082
            1.010500	            4.896196	          337.604983	          -32.774041	           -0.288975	            0.006265	           -0.417535	            0.023632	            1.629460	           -0.158185	          -12.175895	          454.394342	           14.437477	           -0.251851	            0.005642	           -0.716593	           -0.060271	            2.249261	            0.071466
            1.011000	            4.667371	          337.964684	          -32.588502	           -0.288618	            0.006266	           -0.417621	            0.022324	            1.616463	           -0.155869	          -12.365309	          454.946255	           14.392600	           -0.251996	            0.005642	           -0.716781	           -0.062678	            2.306050	            0.072954
            1.011500	            4.758700	          337.424721	          -32.774472	           -0.289069	            0.006265	           -0.417566	            0.023365	            1.656709	           -0.160918	          -12.084292	          454.947939	           14.204768	           -0.251910	            0.005643	           -0.717025	           -0.060691	            2.284906	            0.071341
            1.012000	            4.941875	          338.506351	          -32.770289	           -0.288755	            0.006263	           -0.417045	            0.024292	            1.663939	           -0.161083	          -12.366659	          455.314703	           14.346986	           -0.251773	            0.005643	           -0.716876	           -0.062709	            2.308803	            0.072750
            1.012500	            5.079796	          337.604625	          -32.682784	           -0.288880	            0.006266	           -0.417685	            0.025409	            1.688718	           -0.163481	          -12.455624	          454.024650	           14.530139	           -0.251707	            0.005643	           -0.716671	           -0.063882	            2.328587	            0.074522
            1.013000	            4.988694	          338.144255	          -32.405102	           -0.288560	            0.006264	           -0.417286	            0.023324	            1.580957	           -0.151507	          -12.317753	          454.761948	           14.485779	           -0.251966	            0.005642	           -0.716817	           -0.063288	            2.336529	            0.074427
            1.013500	            5.125786	          337.424202	          -32.637818	           -0.288739	            0.006265	           -0.417599	            0.025508	            1.679163	           -0.162419	          -12.175833	          454.393840	           14.578262	           -0.251938	            0.005643	           -0.716884	           -0.061098	            2.280120	            0.073153
            1.014000	            4.941797	          337.064815	          -32.914045	           -0.289163	            0.006266	           -0.417756	            0.024087	            1.642906	           -0.160428	          -12.361986	          454.025490	           14.389315	           -0.251999	            0.005641	           -0.716465	           -0.064680	            2.375554	            0.075288
            1.014500	            5.080039	          338.144863	          -32.542901	           -0.288868	            0.006265	           -0.417466	            0.024399	            1.624080	           -0.156301	          -12.271506	          454.945756	           14.627201	           -0.251787	            0.005643	           -0.716859	           -0.060049	            2.226211	            0.071576
